<?xml version="1.0" encoding="utf-8"?>
<!-- Svg Vector Icons : http://www.onlinewebfonts.com/icon -->
<!DOCTYPE svg PUBLIC "-//W3C//DTD SVG 1.1//EN" "http://www.w3.org/Graphics/SVG/1.1/DTD/svg11.dtd">
<svg version="1.1" xmlns="http://www.w3.org/2000/svg" xmlns:xlink="http://www.w3.org/1999/xlink" fill="currentColor" viewBox="0 0 1000 1000" enable-background="new 0 0 1000 1000" xml:space="preserve">
<metadata> Svg Vector Icons : http://www.onlinewebfonts.com/icon </metadata>
<g><path d="M654.9,567.6L654.9,567.6v161c0,13.7-11.1,24.8-24.8,24.8h-223V231.3c0-15.6-8.1-39.4-34.7-52.8C357.5,171,159.3,71.9,159.3,71.9h470.8c13.7,0,24.8,11.1,24.8,24.8v223l0,0h62l0,0l0,0V47.1c0-20.5-16.7-37.1-37.2-37.1H72.5C52,10,35.4,26.6,35.4,47.1v21v687.7v22.4c0,14.4,8.2,26.8,20.1,33c0.1,0.1,0.2,0.1,0.3,0.1C72,820,296.5,942.9,379,986.4c17.5,9.2,28.1-1,28.1-10.9V815.4h272.6c20.5,0,37.2-16.7,37.2-37.2V567.6l0,0H654.9L654.9,567.6L654.9,567.6z"/><path d="M964.6,443.6L778.8,257.8v123.9H469.1v123.9h309.7v123.9L964.6,443.6z"/></g>
</svg>